<!DOCTYPE svg PUBLIC "-//W3C//DTD SVG 1.1//EN" "http://www.w3.org/Graphics/SVG/1.1/DTD/svg11.dtd">
<!-- Uploaded to: SVG Repo, www.svgrepo.com, Transformed by: SVG Repo Mixer Tools -->
<svg fill="#000000" width="100px" height="100px" viewBox="0 0 24 24" xmlns="http://www.w3.org/2000/svg">
<g id="SVGRepo_bgCarrier" stroke-width="0"/>
<g id="SVGRepo_tracerCarrier" stroke-linecap="round" stroke-linejoin="round"/>
<g id="SVGRepo_iconCarrier">
<path d="M5,21a1,1,0,0,0,1,1H18a1,1,0,0,0,1-1V8L12,2,5,8ZM12,7a2,2,0,1,1-2,2A2,2,0,0,1,12,7ZM9.172,15.586l1.414-1.414L12,15.586l1.414-1.414,1.414,1.414L13.414,17l1.414,1.414-1.414,1.414L12,18.414l-1.414,1.414L9.172,18.414,10.586,17Z"/>
</g>
</svg>